<svg version="1.1" id="Layer_1" xmlns="http://www.w3.org/2000/svg" xmlns:xlink="http://www.w3.org/1999/xlink" x="0px" y="0px"
	 width="100%" viewBox="0 0 841 841" enable-background="new 0 0 841 841" xml:space="preserve">
<path fill="none" opacity="1.000000" stroke="none" 
	d="
M465.000000,842.000000 
	C310.000061,842.000000 155.500092,842.000000 1.000104,842.000000 
	C1.000069,561.666809 1.000069,281.333588 1.000035,1.000292 
	C281.333130,1.000194 561.666260,1.000194 841.999512,1.000097 
	C841.999695,281.333038 841.999695,561.666077 841.999878,841.999512 
	C716.500000,842.000000 591.000000,842.000000 465.000000,842.000000 
M749.495300,649.051941 
	C753.161316,649.051697 756.828064,649.099976 760.493103,649.041321 
	C768.642639,648.910889 774.444580,644.207092 775.902344,636.123352 
	C777.432922,627.635193 778.683716,619.093567 779.913086,610.554626 
	C783.388367,586.415466 786.724609,562.256226 790.239136,538.122864 
	C793.753174,513.992310 797.481445,489.892975 800.995422,465.762390 
	C804.222900,443.599457 807.188538,421.398132 810.473145,399.243927 
	C811.975830,389.108032 804.843933,380.121857 794.628113,379.971100 
	C788.463135,379.880127 782.295837,379.949585 776.129578,379.946564 
	C768.973083,379.943054 768.321167,379.294617 768.084961,371.947784 
	C767.737793,361.148132 762.914673,355.123108 753.106628,353.236420 
	C741.652710,351.033142 732.371094,354.970978 728.452881,364.206146 
	C726.852600,367.977905 725.994019,372.131805 725.294678,376.197266 
	C724.723206,379.519653 722.844299,380.087738 720.028076,380.063965 
	C717.003601,380.038422 715.976196,378.504395 715.860046,375.694946 
	C715.764404,373.382538 715.312805,371.082062 714.972656,368.783142 
	C713.999451,362.206940 710.940430,356.624359 704.386902,354.958801 
	C698.932251,353.572540 692.860352,353.101868 687.315002,353.927185 
	C678.159058,355.289856 674.087646,361.050110 673.907715,370.343964 
	C673.875549,372.004639 674.346985,374.085022 673.536926,375.228760 
	C672.172974,377.154816 670.197815,379.229980 668.062561,379.887573 
	C665.075317,380.807465 662.459778,379.246765 661.828857,375.797455 
	C661.413269,373.525757 661.224121,371.202698 661.078369,368.893524 
	C660.719666,363.208954 658.584534,358.610199 653.425720,355.720520 
	C638.888672,347.577576 623.034668,354.852356 620.226562,370.991943 
	C619.999573,372.296661 619.953613,373.648102 619.966187,374.976471 
	C620.000366,378.581024 618.216919,380.028961 614.681763,379.963104 
	C608.851013,379.854462 603.015015,379.866425 597.183899,379.972687 
	C589.195312,380.118225 583.406494,384.498138 581.812317,392.255096 
	C580.211853,400.042786 579.196533,407.953888 578.025574,415.825897 
	C576.542664,425.794800 575.161560,435.778870 573.642639,446.414276 
	C560.916260,444.693756 548.805542,443.108704 537.264954,438.660980 
	C529.140076,435.529663 524.517029,429.669037 522.762817,421.052704 
	C519.861938,406.804871 519.251953,392.500793 519.780090,378.003082 
	C520.391968,361.208313 531.861938,350.168549 548.110168,350.719208 
	C565.136353,351.296265 581.896484,348.371216 597.831604,341.904755 
	C613.589783,335.510101 627.936951,326.876190 639.377930,314.096893 
	C647.297729,305.250732 648.766113,298.244354 644.007324,288.117310 
	C637.350891,273.952087 630.698547,259.783508 623.866882,245.702484 
	C609.152649,215.374496 586.399536,193.064224 556.056946,178.524567 
	C548.264160,174.790405 540.264465,171.467758 532.256714,168.209457 
	C526.715454,165.954773 524.611511,161.667145 524.069153,156.163818 
	C523.727356,152.696045 523.659729,149.169708 522.960571,145.774353 
	C520.450256,133.582825 516.754700,121.806427 507.414154,112.922600 
	C498.601288,104.540611 486.494507,108.355354 483.806671,120.135071 
	C483.366547,122.064011 483.301147,124.075623 482.994659,126.038429 
	C482.177704,131.270721 481.323761,136.497253 480.484497,141.726074 
	C480.043579,141.753601 479.602661,141.781143 479.161743,141.808670 
	C478.162994,139.948410 477.243958,138.039825 476.151062,136.236633 
	C472.363007,129.986618 468.875793,123.512505 464.610107,117.602921 
	C456.923920,106.954552 443.818695,107.777901 437.040649,119.046867 
	C435.928955,120.895126 434.913727,122.852486 434.200256,124.881233 
	C427.669830,143.451126 426.138214,162.578751 429.112579,181.911346 
	C430.070862,188.139938 428.937927,192.969666 425.048340,197.517029 
	C408.773834,216.543991 399.753448,239.130981 392.806763,262.786377 
	C388.900940,276.086823 384.016388,288.982788 375.421844,300.146179 
	C361.805542,317.832367 344.948944,332.156555 327.763245,346.124023 
	C307.219421,362.820770 287.092255,379.925842 269.485718,399.834930 
	C246.322113,426.027863 227.844666,455.027130 215.620102,487.875000 
	C205.757797,514.375427 201.418411,541.798035 202.150711,570.035645 
	C202.220856,572.739624 202.702408,575.432983 202.992966,578.131226 
	C197.236145,572.713135 190.644470,567.625854 190.165924,559.715332 
	C189.576843,549.977356 190.012741,540.029419 191.338760,530.354919 
	C193.984070,511.055084 198.930618,492.225006 205.895172,474.006287 
	C217.970871,442.417236 235.280289,413.995239 258.352051,389.213409 
	C272.428253,374.093842 285.918121,358.533203 296.733063,340.855927 
	C319.245941,304.058044 329.729492,264.266785 321.577026,221.544495 
	C312.672882,174.883224 287.404358,139.042709 244.518021,116.840561 
	C225.857010,107.179810 206.052078,101.619865 185.023361,99.776375 
	C155.745712,97.209747 127.586533,100.690544 100.997017,113.594116 
	C69.152046,129.048111 46.284744,153.099060 32.578297,185.866638 
	C24.840315,204.365585 21.393358,223.737076 20.180998,243.569824 
	C19.597572,253.113983 23.853823,257.217712 33.277901,256.835815 
	C37.911068,256.648102 42.523201,255.932159 47.143810,255.445358 
	C58.754070,254.222229 70.133186,254.517303 80.448669,260.963379 
	C99.063934,272.595978 107.465462,290.168365 108.968979,311.379883 
	C110.416214,331.797241 105.694534,351.373108 99.604485,370.643127 
	C89.935799,401.236572 79.159950,431.518250 70.623108,462.420929 
	C61.548439,495.270447 60.609268,529.041260 64.948578,562.847168 
	C70.374672,605.119690 89.283379,640.924500 118.296646,671.601562 
	C133.139999,687.296082 150.322464,700.001404 169.360565,710.378723 
	C197.779984,725.869568 228.008759,735.186523 260.053314,739.131226 
	C268.860504,740.215393 277.726776,740.692444 286.039001,745.134766 
	C290.933105,747.750183 297.191101,748.841248 302.841095,748.858826 
	C375.002350,749.083191 447.164612,748.992432 519.326599,748.971008 
	C528.435852,748.968323 533.121704,743.691528 531.815857,734.545471 
	C529.656067,719.418640 521.143494,708.950562 507.289093,703.000610 
	C494.090576,697.332336 480.083099,695.772156 465.816986,695.903870 
	C463.108612,695.928894 460.394073,695.285706 457.682434,694.950867 
	C459.002411,692.240601 459.898560,689.200378 461.710358,686.872986 
	C474.559937,670.366394 483.613525,651.904114 489.720947,632.034668 
	C498.731415,602.720581 499.550903,572.479919 499.054199,542.133606 
	C499.000458,538.850037 497.498077,537.311035 494.300201,536.944153 
	C489.521240,536.395752 484.754913,535.718018 479.998566,534.994385 
	C442.624756,529.308594 415.369202,510.096161 400.084686,475.007690 
	C399.396179,473.427032 398.723755,471.002991 399.443420,469.831787 
	C400.670166,467.835388 402.787750,465.662994 404.929443,465.111450 
	C408.718292,464.135651 410.839111,466.778503 412.290436,470.241974 
	C423.415192,496.790131 442.615479,514.502625 471.057129,519.973938 
	C492.672852,524.132141 514.687622,526.301025 536.579834,528.889771 
	C543.998657,529.767090 550.822815,530.919373 556.841797,535.945251 
	C559.648560,538.288879 560.298889,540.479370 559.838562,543.597717 
	C555.865417,570.515747 552.435669,597.530640 547.672363,624.308167 
	C545.400757,637.078369 551.981445,649.382629 569.010559,649.235474 
	C628.835510,648.718628 688.667725,649.045227 749.495300,649.051941 
z"/>
<path fill="#A6C6DB" opacity="1.000000" stroke="none" 
	d="
M748.996216,649.051819 
	C688.667725,649.045227 628.835510,648.718628 569.010559,649.235474 
	C551.981445,649.382629 545.400757,637.078369 547.672363,624.308167 
	C552.435669,597.530640 555.865417,570.515747 559.838562,543.597717 
	C560.298889,540.479370 559.648560,538.288879 556.841797,535.945251 
	C550.822815,530.919373 543.998657,529.767090 536.579834,528.889771 
	C514.687622,526.301025 492.672852,524.132141 471.057129,519.973938 
	C442.615479,514.502625 423.415192,496.790131 412.290436,470.241974 
	C410.839111,466.778503 408.718292,464.135651 404.929443,465.111450 
	C402.787750,465.662994 400.670166,467.835388 399.443420,469.831787 
	C398.723755,471.002991 399.396179,473.427032 400.084686,475.007690 
	C415.369202,510.096161 442.624756,529.308594 479.998566,534.994385 
	C484.754913,535.718018 489.521240,536.395752 494.300201,536.944153 
	C497.498077,537.311035 499.000458,538.850037 499.054199,542.133606 
	C499.550903,572.479919 498.731415,602.720581 489.720947,632.034668 
	C483.613525,651.904114 474.559937,670.366394 461.710358,686.872986 
	C459.898560,689.200378 459.002411,692.240601 457.682404,694.950867 
	C460.394073,695.285706 463.108612,695.928894 465.816986,695.903870 
	C480.083099,695.772156 494.090576,697.332336 507.289093,703.000610 
	C521.143494,708.950562 529.656067,719.418640 531.815857,734.545471 
	C533.121704,743.691528 528.435852,748.968323 519.326599,748.971008 
	C447.164612,748.992432 375.002350,749.083191 302.841095,748.858826 
	C297.191101,748.841248 290.933105,747.750183 286.039001,745.134766 
	C277.726776,740.692444 268.860504,740.215393 260.053314,739.131226 
	C228.008759,735.186523 197.779984,725.869568 169.360565,710.378723 
	C150.322464,700.001404 133.139999,687.296082 118.296646,671.601562 
	C89.283379,640.924500 70.374672,605.119690 64.948578,562.847168 
	C60.609268,529.041260 61.548439,495.270447 70.623108,462.420929 
	C79.159950,431.518250 89.935799,401.236572 99.604485,370.643127 
	C105.694534,351.373108 110.416214,331.797241 108.968979,311.379883 
	C107.465462,290.168365 99.063934,272.595978 80.448669,260.963379 
	C70.133186,254.517303 58.754070,254.222229 47.143810,255.445358 
	C42.523201,255.932159 37.911068,256.648102 33.277901,256.835815 
	C23.853823,257.217712 19.597572,253.113983 20.180998,243.569824 
	C21.393358,223.737076 24.840315,204.365585 32.578297,185.866638 
	C46.284744,153.099060 69.152046,129.048111 100.997017,113.594116 
	C127.586533,100.690544 155.745712,97.209747 185.023361,99.776375 
	C206.052078,101.619865 225.857010,107.179810 244.518021,116.840561 
	C287.404358,139.042709 312.672882,174.883224 321.577026,221.544495 
	C329.729492,264.266785 319.245941,304.058044 296.733063,340.855927 
	C285.918121,358.533203 272.428253,374.093842 258.352051,389.213409 
	C235.280289,413.995239 217.970871,442.417236 205.895172,474.006287 
	C198.930618,492.225006 193.984070,511.055084 191.338760,530.354919 
	C190.012741,540.029419 189.576843,549.977356 190.165924,559.715332 
	C190.644470,567.625854 197.236145,572.713135 202.992966,578.131226 
	C202.702408,575.432983 202.220856,572.739624 202.150711,570.035645 
	C201.418411,541.798035 205.757797,514.375427 215.620102,487.875000 
	C227.844666,455.027130 246.322113,426.027863 269.485718,399.834930 
	C287.092255,379.925842 307.219421,362.820770 327.763245,346.124023 
	C344.948944,332.156555 361.805542,317.832367 375.421844,300.146179 
	C384.016388,288.982788 388.900940,276.086823 392.806763,262.786377 
	C399.753448,239.130981 408.773834,216.543991 425.048340,197.517029 
	C428.937927,192.969666 430.070862,188.139938 429.112579,181.911346 
	C426.138214,162.578751 427.669830,143.451126 434.200256,124.881233 
	C434.913727,122.852486 435.928955,120.895126 437.040649,119.046867 
	C443.818695,107.777901 456.923920,106.954552 464.610107,117.602921 
	C468.875793,123.512505 472.363007,129.986618 476.151062,136.236633 
	C477.243958,138.039825 478.162994,139.948410 479.161743,141.808670 
	C479.602661,141.781143 480.043579,141.753601 480.484497,141.726074 
	C481.323761,136.497253 482.177704,131.270721 482.994659,126.038429 
	C483.301147,124.075623 483.366547,122.064011 483.806671,120.135071 
	C486.494507,108.355354 498.601288,104.540611 507.414154,112.922600 
	C516.754700,121.806427 520.450256,133.582825 522.960571,145.774353 
	C523.659729,149.169708 523.727356,152.696045 524.069153,156.163818 
	C524.611511,161.667145 526.715454,165.954773 532.256714,168.209457 
	C540.264465,171.467758 548.264160,174.790405 556.056946,178.524567 
	C586.399536,193.064224 609.152649,215.374496 623.866882,245.702484 
	C630.698547,259.783508 637.350891,273.952087 644.007324,288.117310 
	C648.766113,298.244354 647.297729,305.250732 639.377930,314.096893 
	C627.936951,326.876190 613.589783,335.510101 597.831604,341.904755 
	C581.896484,348.371216 565.136353,351.296265 548.110168,350.719208 
	C531.861938,350.168549 520.391968,361.208313 519.780090,378.003082 
	C519.251953,392.500793 519.861938,406.804871 522.762817,421.052704 
	C524.517029,429.669037 529.140076,435.529663 537.264954,438.660980 
	C548.805542,443.108704 560.916260,444.693756 573.642639,446.414276 
	C575.161560,435.778870 576.542664,425.794800 578.025574,415.825897 
	C579.196533,407.953888 580.211853,400.042786 581.812317,392.255096 
	C583.406494,384.498138 589.195312,380.118225 597.183899,379.972687 
	C603.015015,379.866425 608.851013,379.854462 614.681763,379.963104 
	C618.216919,380.028961 620.000366,378.581024 619.966187,374.976471 
	C619.953613,373.648102 619.999573,372.296661 620.226562,370.991943 
	C623.034668,354.852356 638.888672,347.577576 653.425720,355.720520 
	C658.584534,358.610199 660.719666,363.208954 661.078369,368.893524 
	C661.224121,371.202698 661.413269,373.525757 661.828857,375.797455 
	C662.459778,379.246765 665.075317,380.807465 668.062561,379.887573 
	C670.197815,379.229980 672.172974,377.154816 673.536926,375.228760 
	C674.346985,374.085022 673.875549,372.004639 673.907715,370.343964 
	C674.087646,361.050110 678.159058,355.289856 687.315002,353.927185 
	C692.860352,353.101868 698.932251,353.572540 704.386902,354.958801 
	C710.940430,356.624359 713.999451,362.206940 714.972656,368.783142 
	C715.312805,371.082062 715.764404,373.382538 715.860046,375.694946 
	C715.976196,378.504395 717.003601,380.038422 720.028076,380.063965 
	C722.844299,380.087738 724.723206,379.519653 725.294678,376.197266 
	C725.994019,372.131805 726.852600,367.977905 728.452881,364.206146 
	C732.371094,354.970978 741.652710,351.033142 753.106628,353.236420 
	C762.914673,355.123108 767.737793,361.148132 768.084961,371.947784 
	C768.321167,379.294617 768.973083,379.943054 776.129578,379.946564 
	C782.295837,379.949585 788.463135,379.880127 794.628113,379.971100 
	C804.843933,380.121857 811.975830,389.108032 810.473145,399.243927 
	C807.188538,421.398132 804.222900,443.599457 800.995422,465.762390 
	C797.481445,489.892975 793.753174,513.992310 790.239136,538.122864 
	C786.724609,562.256226 783.388367,586.415466 779.913086,610.554626 
	C778.683716,619.093567 777.432922,627.635193 775.902344,636.123352 
	C774.444580,644.207092 768.642639,648.910889 760.493103,649.041321 
	C756.828064,649.099976 753.161316,649.051697 748.996216,649.051819 
M740.923279,380.393219 
	C741.327271,386.095032 741.476990,391.830597 742.228455,397.486237 
	C742.696228,401.007416 744.953918,403.942139 748.856384,403.617859 
	C753.060974,403.268463 753.835205,399.582672 753.789246,396.163147 
	C753.688965,388.722168 753.475037,381.267822 752.829895,373.860504 
	C752.685120,372.198120 750.759827,369.643707 749.332764,369.402618 
	C747.512451,369.095123 744.574463,370.168549 743.546265,371.642792 
	C742.031433,373.814697 741.777344,376.865936 740.923279,380.393219 
M699.926819,389.454407 
	C699.916870,384.971436 699.916565,380.488403 699.893921,376.005524 
	C699.874878,372.227814 699.288879,368.898254 694.351990,368.946869 
	C689.701721,368.992645 689.087219,372.200714 689.051575,375.752441 
	C688.978271,383.057495 689.112610,390.366333 688.928406,397.667725 
	C688.837524,401.268707 690.140198,403.655090 693.774414,403.811432 
	C697.237793,403.960480 699.373779,401.729431 699.815125,398.389984 
	C700.160278,395.778259 699.913635,393.088348 699.926819,389.454407 
M641.205505,404.023621 
	C642.981018,402.220612 646.163574,400.510132 646.289246,398.598694 
	C646.840881,390.207733 646.803589,381.738342 646.224792,373.349457 
	C646.120605,371.840088 642.464905,370.575806 640.448914,369.198364 
	C639.292786,370.956238 637.219055,372.673157 637.138428,374.479065 
	C636.776550,382.584808 636.782043,390.724548 637.137329,398.830872 
	C637.215271,400.608063 639.266174,402.298767 641.205505,404.023621 
z"/>
<path fill="#F9FAFB" opacity="1.000000" stroke="none" 
	d="
M740.954834,379.967926 
	C741.777344,376.865936 742.031433,373.814697 743.546265,371.642792 
	C744.574463,370.168549 747.512451,369.095123 749.332764,369.402618 
	C750.759827,369.643707 752.685120,372.198120 752.829895,373.860504 
	C753.475037,381.267822 753.688965,388.722168 753.789246,396.163147 
	C753.835205,399.582672 753.060974,403.268463 748.856384,403.617859 
	C744.953918,403.942139 742.696228,401.007416 742.228455,397.486237 
	C741.476990,391.830597 741.327271,386.095032 740.954834,379.967926 
z"/>
<path fill="#F7FAFB" opacity="1.000000" stroke="none" 
	d="
M699.928345,389.943787 
	C699.913635,393.088348 700.160278,395.778259 699.815125,398.389984 
	C699.373779,401.729431 697.237793,403.960480 693.774414,403.811432 
	C690.140198,403.655090 688.837524,401.268707 688.928406,397.667725 
	C689.112610,390.366333 688.978271,383.057495 689.051575,375.752441 
	C689.087219,372.200714 689.701721,368.992645 694.351990,368.946869 
	C699.288879,368.898254 699.874878,372.227814 699.893921,376.005524 
	C699.916565,380.488403 699.916870,384.971436 699.928345,389.943787 
z"/>
<path fill="#F9FCFC" opacity="1.000000" stroke="none" 
	d="
M640.807007,404.026459 
	C639.266174,402.298767 637.215271,400.608063 637.137329,398.830872 
	C636.782043,390.724548 636.776550,382.584808 637.138428,374.479065 
	C637.219055,372.673157 639.292786,370.956238 640.448914,369.198364 
	C642.464905,370.575806 646.120605,371.840088 646.224792,373.349457 
	C646.803589,381.738342 646.840881,390.207733 646.289246,398.598694 
	C646.163574,400.510132 642.981018,402.220612 640.807007,404.026459 
z"/>
</svg>